<?xml version="1.0" encoding="utf-8"?>
<!-- Generator: Adobe Illustrator 24.0.0, SVG Export Plug-In . SVG Version: 6.00 Build 0)  -->
<svg version="1.1" id="Calque_1" xmlns="http://www.w3.org/2000/svg" xmlns:xlink="http://www.w3.org/1999/xlink" x="0px" y="0px"
	 viewBox="0 0 167.8 56.6" style="enable-background:new 0 0 167.8 56.6;" xml:space="preserve">
<style type="text/css">
	.st0{clip-path:url(#SVGID_2_);}
	.st1{fill-rule:evenodd;clip-rule:evenodd;fill:#010101;}
	.st2{fill:#F7A608;}
	.st3{fill:#010101;}
	.st4{fill-rule:evenodd;clip-rule:evenodd;fill:#EEEDED;}
	.st5{clip-path:url(#SVGID_4_);}
	.st6{fill:url(#SVGID_5_);}
	.st7{clip-path:url(#SVGID_7_);}
	.st8{clip-path:url(#SVGID_9_);}
	.st9{fill:url(#SVGID_10_);}
	.st10{clip-path:url(#SVGID_12_);}
	.st11{fill:url(#SVGID_13_);}
	.st12{clip-path:url(#SVGID_15_);}
	.st13{fill:url(#SVGID_16_);}
	.st14{clip-path:url(#SVGID_18_);}
	.st15{fill:url(#SVGID_19_);}
	.st16{clip-path:url(#SVGID_21_);}
	.st17{fill:url(#SVGID_22_);}
	.st18{clip-path:url(#SVGID_24_);}
	.st19{fill:url(#SVGID_25_);}
	.st20{clip-path:url(#SVGID_27_);}
	.st21{fill:url(#SVGID_28_);}
	.st22{clip-path:url(#SVGID_30_);}
	.st23{fill:url(#SVGID_31_);}
	.st24{clip-path:url(#SVGID_33_);}
	.st25{fill:url(#SVGID_34_);}
	.st26{clip-path:url(#SVGID_36_);}
	.st27{fill:url(#SVGID_37_);}
	.st28{clip-path:url(#SVGID_39_);}
	.st29{fill:url(#SVGID_40_);}
	.st30{clip-path:url(#SVGID_42_);}
	.st31{fill:url(#SVGID_43_);}
</style>
<title>logo</title>
<g>
	<defs>
		<rect id="SVGID_1_" y="0" width="167.8" height="56.3"/>
	</defs>
	<clipPath id="SVGID_2_">
		<use xlink:href="#SVGID_1_"  style="overflow:visible;"/>
	</clipPath>
	<g class="st0">
		<path class="st1" d="M63,28.6c-0.7,0.3-1.4,0.4-2.1,0.4c-1.5,0-2.7-1.1-2.8-2.6c0-1.5,1.1-2.7,2.6-2.8c0.8,0,1.5,0.2,2.2,0.6
			l0.2-1.8c-0.8-0.3-1.6-0.4-2.5-0.4c-2.8,0-4.8,1.5-4.8,4.4c0,3.2,2.6,4.3,4.8,4.3c0.8,0,1.7-0.1,2.5-0.3L63,28.6z"/>
		<path class="st1" d="M64.3,30.5h2.2v-6.2h-2.2V30.5z M66.4,21.7h-2.2v1.6h2.2V21.7z"/>
		<path class="st1" d="M68,30.5h2.2v-2.6c0-1.3,0.4-2,1.2-2c0.6,0,0.9,0.5,0.9,1.2v3.3h2.2v-2.6c0-1.3,0.4-2,1.2-2
			c0.6,0,0.9,0.5,0.9,1.2v3.3h2.2v-3.6c0-1.7-0.4-2.7-2.2-2.7c-0.9,0-1.7,0.4-2.2,1.2c-0.3-0.8-1.1-1.3-2-1.2
			c-0.9-0.1-1.8,0.4-2.3,1.3l0,0v-1.2h-2L68,30.5z"/>
		<path class="st1" d="M86.2,28.1v-0.4c0-1.9-0.8-3.5-3.2-3.5c-1.7-0.1-3.2,1.1-3.3,2.8c0,0.1,0,0.3,0,0.4c0,2.1,1.6,3.3,3.6,3.3
			c0.8,0,1.6-0.1,2.3-0.4v-1.5c-0.6,0.3-1.2,0.5-1.9,0.5c-1,0-1.7-0.3-1.8-1.2L86.2,28.1z M81.9,26.8c0-0.7,0.4-1.3,1.2-1.3
			s1.2,0.6,1.2,1.3H81.9z"/>
		<path class="st1" d="M87.3,30.5h2.2v-2.6c0-1.3,0.4-2,1.3-2c0.6,0,1,0.4,1,1.6v3H94v-3.9c0.1-1.2-0.8-2.4-2-2.5
			c-0.1,0-0.3,0-0.4,0c-0.9-0.1-1.8,0.4-2.3,1.3l0,0v-1.1h-2L87.3,30.5z"/>
		<path class="st1" d="M94.8,25.8H96v2.5c0,1.5,0.5,2.3,2.4,2.3c0.5,0,0.9,0,1.3-0.1l-0.1-1.4c-0.2,0-0.4,0.1-0.7,0.1
			c-0.7,0-0.9-0.4-0.9-1.1v-2.3h1.5v-1.5h-1.5v-2.1L96,22.9v1.4h-1.3V25.8z"/>
		<path class="st1" d="M100.4,30.4c0.7,0.2,1.5,0.3,2.3,0.3c1.4,0,2.9-0.4,2.9-2.1c0-2.4-3.2-1.6-3.2-2.6c0-0.3,0.5-0.4,1-0.4
			c0.6,0,1.2,0.1,1.7,0.4l0.2-1.5c-0.7-0.3-1.4-0.4-2.2-0.4c-1.2,0-2.7,0.6-2.7,2c0,2.3,3.1,1.5,3.1,2.6c0,0.4-0.4,0.5-0.9,0.5
			c-0.7,0-1.4-0.2-2-0.4L100.4,30.4z"/>
		<path class="st1" d="M117,21.6h-2.2v3.5l0,0c-0.5-0.7-1.3-1-2.1-1c-1.6,0.1-2.8,1.5-2.7,3.1c0,0,0,0,0,0.1c0,1.8,1,3.4,2.8,3.4
			c0.9,0,1.7-0.5,2.1-1.3l0,0v1.1h2L117,21.6z M112.2,27.4c-0.1-0.8,0.5-1.5,1.2-1.5c0,0,0,0,0.1,0c0.8,0,1.3,0.7,1.3,1.6
			c0.1,0.8-0.5,1.5-1.3,1.6c0,0,0,0,0,0C112.7,29,112.2,28.4,112.2,27.4"/>
		<path class="st1" d="M124.9,24.3h-2.2v2.6c0,1.3-0.5,2-1.3,2c-0.6,0-1-0.4-1-1.6v-3h-2.1v3.9c-0.1,1.2,0.8,2.4,2,2.5
			c0.1,0,0.3,0,0.4,0c1,0.1,1.8-0.4,2.3-1.3l0,0v1.2h2L124.9,24.3z"/>
		<polygon class="st1" points="130,30.5 132.2,30.5 132.1,24.1 132.1,24.1 134.2,30.5 136.2,30.5 138.4,24.1 138.4,24.1 138.4,30.5 
			140.5,30.5 140.5,22.2 137.2,22.2 135.3,27.7 135.3,27.7 133.5,22.2 130,22.2 		"/>
		<path class="st1" d="M148,30.5c-0.1-0.5-0.1-1-0.1-1.5v-2.3c0-1.9-1.4-2.6-3-2.6c-0.9,0-1.7,0.1-2.5,0.4v1.5
			c0.6-0.3,1.3-0.5,2-0.5c0.8,0,1.4,0.2,1.4,1.1c-0.3,0-0.7-0.1-1-0.1c-1.1,0-3.2,0.2-3.2,2.1c0,1.4,1.1,2,2.3,2
			c0.8,0,1.6-0.4,2-1.1l0,0c0,0.3,0,0.7,0.1,1L148,30.5z M143.6,28.5c0-0.6,0.6-0.8,1.3-0.8c0.3,0,0.6,0,0.9,0
			c0.1,0.8-0.5,1.5-1.3,1.5c0,0-0.1,0-0.1,0C144,29.2,143.6,29,143.6,28.5"/>
		<path class="st1" d="M153.8,24.2c-0.2,0-0.5-0.1-0.7-0.1c-0.8,0-1.6,0.5-1.9,1.3l0,0v-1.2h-2v6.2h2.2v-2.6c0-1.2,0.6-2,1.6-2
			c0.2,0,0.5,0,0.7,0.1L153.8,24.2z"/>
		<path class="st1" d="M157.9,30.7c2.1,0,3.6-1.2,3.6-3.3s-1.6-3.3-3.6-3.3s-3.6,1.2-3.6,3.3S155.8,30.7,157.9,30.7 M157.9,29.2
			c-1,0-1.4-0.8-1.4-1.8s0.4-1.8,1.4-1.8s1.4,0.8,1.4,1.8S158.9,29.2,157.9,29.2"/>
		<path class="st1" d="M167.6,24.5c-0.5-0.2-1.1-0.4-1.7-0.3c-2.1,0-3.6,1.2-3.6,3.3s1.6,3.3,3.6,3.3c0.6,0,1.2-0.1,1.8-0.3v-1.6
			c-0.4,0.2-0.9,0.3-1.3,0.3c-0.9,0.1-1.7-0.6-1.8-1.5c0,0,0-0.1,0-0.1c-0.1-0.9,0.6-1.6,1.5-1.7c0.1,0,0.1,0,0.2,0
			c0.5,0,0.9,0.1,1.3,0.3L167.6,24.5z"/>
		<rect x="56.7" class="st2" width="111" height="1.5"/>
		<rect x="56.7" y="37.6" class="st3" width="1.6" height="1.6"/>
		<path class="st1" d="M115.9,38.2c-0.1-0.1-0.3-0.2-0.4-0.2c-0.5-0.2-1.1-0.3-1.6-0.3c-1,0-1.9,0.4-2.6,1.2c-0.5,0.6-0.7,1.3-0.7,2
			c0,0.9,0.4,1.8,1.1,2.4c0.6,0.5,1.3,0.8,2.1,0.8c0.8,0,1.5-0.2,2.2-0.6l-0.3-0.5c-0.5,0.3-1.1,0.5-1.8,0.5c-0.8,0-1.5-0.3-1.9-0.9
			c-0.3-0.5-0.5-1-0.5-1.6c0-0.8,0.3-1.5,0.8-2c0.4-0.4,1-0.6,1.6-0.6c0.5,0,0.9,0.1,1.3,0.3l0.4,0.2L115.9,38.2z"/>
		<polygon class="st1" points="116.8,37.6 116.8,43.9 120.2,43.9 120.2,43.3 117.6,43.3 117.6,41 120,41 120,40.4 117.6,40.4 
			117.6,38.3 120.1,38.3 120.1,37.6 		"/>
		<path class="st1" d="M122.1,37.7l-1.1,6.1l0.7,0.1l0.3-1.8c0.1-0.6,0.2-1.2,0.3-1.7c0.1-0.6,0.2-1.3,0.2-1.9
			c0.1,0.3,0.1,0.6,0.3,0.9c0.1,0.3,0.1,0.4,0.2,0.5c0.2,0.5,0.4,1.1,0.6,1.6c0.3,0.8,0.6,1.6,0.8,2.4h0.7c0.4-1,0.8-2.1,1.2-3.1
			c0.1-0.2,0.1-0.4,0.2-0.6c0.1-0.2,0.2-0.5,0.3-0.8s0.2-0.6,0.3-1c0,0.8,0.1,1.5,0.2,2.3c0.2,1.1,0.3,2.2,0.5,3.2l0.7-0.2l-1-6.2
			h-0.8l-0.7,1.7c-0.2,0.4-0.3,0.9-0.5,1.3c-0.2,0.5-0.3,0.8-0.5,1.3c-0.2,0.4-0.3,0.8-0.4,1.1c-0.1-0.3-0.1-0.5-0.2-0.7
			c-0.1-0.2-0.3-0.7-0.4-1l-0.4-1.3c-0.3-0.8-0.6-1.6-0.9-2.4L122.1,37.7z"/>
		<polygon class="st1" points="129.6,37.6 129.6,43.9 132.9,43.9 132.9,43.3 130.4,43.3 130.4,41 132.8,41 132.8,40.4 130.4,40.4 
			130.4,38.3 132.9,38.3 132.9,37.6 		"/>
		<path class="st1" d="M134,37.9v6h0.7V40c0-0.2,0-0.4,0-0.6s0-0.5-0.1-0.8c0.2,0.4,0.5,0.8,0.7,1.1l1.3,1.7l1.8,2.4l0.6-0.3v-6
			h-0.7v3.9c0,0.4,0,0.9,0.1,1.3c-0.1-0.2-0.2-0.4-0.3-0.6s-0.4-0.5-0.6-0.8c-0.4-0.6-0.8-1.1-1.2-1.7c-0.5-0.7-1.1-1.5-1.6-2.2
			L134,37.9z"/>
		<polygon class="st1" points="139.7,37.6 139.7,38.3 141.7,38.3 141.7,43.9 142.5,43.9 142.5,38.3 144.4,38.3 144.4,37.6 		"/>
		<path class="st1" d="M150.7,38.1c-0.6-0.3-1.2-0.4-1.8-0.4c-0.9,0-1.8,0.3-2.5,0.9c-0.6,0.6-1,1.5-0.9,2.3c0,1.1,0.5,2.1,1.4,2.6
			c0.6,0.3,1.2,0.5,1.8,0.5c0.5,0,1.1-0.1,1.6-0.3l0.5-0.2v-3h-0.8v2.6c-0.4,0.2-0.8,0.2-1.3,0.2c-0.3,0-0.7-0.1-1-0.2
			c-0.3-0.1-0.5-0.3-0.7-0.5c-0.5-0.5-0.8-1.2-0.8-1.9c0-1,0.6-2,1.5-2.4c0.3-0.1,0.7-0.2,1.1-0.2c0.5,0,1.1,0.1,1.5,0.4L150.7,38.1
			z"/>
		<path class="st1" d="M151.9,39.4v4.5h0.7v-3c0.1-0.3,0.4-0.5,0.6-0.7c0.2-0.2,0.5-0.2,0.8-0.2l0.2-0.7c-0.1,0-0.2,0-0.4,0
			c-0.4,0-0.8,0.2-1,0.5c-0.1,0.1-0.2,0.3-0.3,0.5v-0.9L151.9,39.4z"/>
		<path class="st1" d="M154.2,41.7c0,0.7,0.2,1.3,0.7,1.8c0.4,0.3,0.9,0.5,1.4,0.5c0.6,0,1.2-0.3,1.6-0.7c0.4-0.5,0.5-1.1,0.6-1.7
			c0-0.9-0.4-1.7-1.2-2.1c-0.3-0.1-0.6-0.2-0.9-0.2c-0.4,0-0.8,0.1-1.1,0.3C154.6,40,154.2,40.8,154.2,41.7 M155,41.7
			c-0.1-0.6,0.2-1.2,0.7-1.6c0.2-0.1,0.4-0.2,0.7-0.2c0.2,0,0.5,0.1,0.7,0.2c0.5,0.4,0.7,0.9,0.7,1.5c0,0.1,0,0.3,0,0.5
			c0,0.6-0.4,1.1-0.9,1.3c-0.2,0.1-0.3,0.1-0.5,0.1c-0.3,0-0.6-0.1-0.8-0.3C155.2,42.8,155,42.3,155,41.7"/>
		<path class="st1" d="M159.3,39.4v3.3c0,0.2,0,0.5,0.1,0.7c0.2,0.4,0.7,0.7,1.1,0.6c0.5,0,0.9-0.2,1.2-0.5c0.1-0.1,0.2-0.2,0.3-0.3
			v0.8h0.7v-4.5h-0.7v3.2c-0.2,0.3-0.5,0.6-0.9,0.8c-0.1,0.1-0.3,0.1-0.4,0.1c-0.1,0-0.3,0-0.4-0.1c-0.3-0.2-0.3-0.5-0.3-0.8v-3.1
			H159.3z"/>
		<path class="st1" d="M163.9,39.4V46h0.7c0-0.4,0-0.8,0-1.2s0-0.9,0-1.3c0.3,0.3,0.8,0.5,1.2,0.5c0.9,0,1.7-0.6,1.9-1.5
			c0.1-0.3,0.2-0.6,0.1-0.9c0-0.6-0.2-1.2-0.6-1.7c-0.3-0.3-0.8-0.5-1.2-0.5c-0.4,0-0.9,0.2-1.2,0.5c-0.1,0.1-0.2,0.2-0.3,0.3v-0.7
			L163.9,39.4z M164.6,40.7c0.2-0.3,0.5-0.6,0.8-0.7c0.1-0.1,0.3-0.1,0.4-0.1c0.2,0,0.4,0,0.5,0.1c0.1,0.1,0.3,0.2,0.4,0.3
			c0.3,0.4,0.4,0.8,0.4,1.3c0,0.5-0.1,0.9-0.4,1.3c-0.2,0.3-0.6,0.5-1,0.5c-0.4,0-0.7-0.2-0.9-0.5c-0.1-0.1-0.1-0.1-0.2-0.2
			L164.6,40.7z"/>
		<path class="st1" d="M103.9,43.9l-1.1-2c-0.2-0.3-0.4-0.5-0.7-0.7c-0.1,0-0.1-0.1-0.2-0.1c0.1,0,0.2,0,0.3,0
			c0.1,0,0.3-0.1,0.4-0.2c0.2-0.1,0.3-0.2,0.4-0.4c0.2-0.3,0.4-0.7,0.3-1.1c0-0.4-0.1-0.7-0.3-1c-0.5-0.6-1.3-0.9-2.1-0.8
			c-0.6,0-1.1,0-1.7,0h-0.7v6.2h1.6v-2.4h0.2c0.1,0,0.2,0,0.3,0.1c0.2,0.1,0.3,0.3,0.4,0.6l0.8,1.7L103.9,43.9z M100.3,40.4v-1.5
			h0.7c0.1,0,0.3,0,0.4,0c0.3,0.1,0.5,0.4,0.5,0.7c0,0.2-0.1,0.4-0.2,0.5c-0.2,0.2-0.4,0.3-0.7,0.3L100.3,40.4L100.3,40.4z"/>
		<path class="st1" d="M108.2,42.5v-2h1.6l-0.1,3c-0.2,0.1-0.5,0.1-0.7,0.2c-0.3,0.1-0.5,0.1-0.8,0.2c-0.3,0-0.5,0-0.8,0.1l0,0
			c-0.8,0-1.6-0.2-2.2-0.7c-0.7-0.6-1.1-1.5-1.1-2.4c0-0.7,0.2-1.4,0.6-2c0.2-0.3,0.5-0.6,0.9-0.8c0.6-0.4,1.3-0.5,2-0.5
			c0.7,0,1.4,0.1,2,0.4l-0.4,1.1l-0.5-0.1c-0.3-0.1-0.7-0.2-1-0.2c-0.3,0-0.6,0.1-0.9,0.2c-0.7,0.3-1.2,1.1-1.1,1.9
			c0,0.3,0,0.5,0.1,0.7c0.3,0.6,0.9,1.1,1.5,1.1h0.2C107.8,42.7,108,42.6,108.2,42.5"/>
		<polygon class="st1" points="93.6,37.6 93.6,43.8 97.8,43.8 97.8,42.6 95.2,42.6 95.2,41.3 97.8,41.3 97.8,40.1 95.2,40.1 
			95.2,38.9 97.8,38.9 97.8,37.6 		"/>
		<polygon class="st1" points="77.6,37.6 77.6,43.8 81.9,43.8 81.9,42.6 79.2,42.6 79.2,41.3 81.9,41.3 81.9,40.1 79.2,40.1 
			79.2,38.9 81.9,38.9 81.9,37.6 		"/>
		<polygon class="st1" points="82.8,37.6 82.8,43.8 87.2,43.8 87.2,42.5 84.5,42.5 84.5,37.6 		"/>
		<path class="st1" d="M72.4,43.9h-1.7v-6.2h2.7c0.2,0,0.4,0,0.5,0c0.6,0,1.2,0.2,1.8,0.6c0.8,0.6,1.2,1.5,1.1,2.4
			c0,0.4-0.1,0.8-0.2,1.1c-0.3,0.9-1.1,1.6-2,1.9c-0.4,0.1-0.9,0.2-1.4,0.2h-0.2H72.4z M73.2,42.7c0.6,0,1.2-0.2,1.6-0.6
			c0.5-0.7,0.6-1.6,0.2-2.3c-0.4-0.6-1.1-0.9-1.8-0.8h-0.7v3.7L73.2,42.7z"/>
		<path class="st1" d="M89.6,43.9H88v-6.2h2.6c0.6-0.1,1.2,0.1,1.7,0.4c0.3,0.3,0.5,0.8,0.5,1.2c0,0.1,0,0.2,0,0.3
			c-0.1,0.4-0.2,0.7-0.5,0.9c-0.1,0.1-0.3,0.2-0.4,0.2c0.3,0.1,0.5,0.3,0.7,0.5c0.2,0.3,0.4,0.6,0.3,1c0,0.6-0.3,1.1-0.8,1.4
			c-0.5,0.2-1.1,0.3-1.7,0.3L89.6,43.9z M90.4,42.7c0.2,0,0.3,0,0.4-0.1c0.2-0.1,0.4-0.3,0.4-0.6c0-0.1,0-0.3-0.1-0.4
			c-0.2-0.3-0.5-0.3-0.8-0.3h-0.7v1.3L90.4,42.7z M89.6,40.2h0.8c0.4,0,0.6-0.1,0.7-0.3c0.1-0.1,0.1-0.2,0.1-0.4
			c0-0.2,0-0.3-0.2-0.4c-0.2-0.2-0.5-0.3-0.8-0.2h-0.7V40.2z"/>
		<polygon class="st1" points="62.9,37.6 62.9,43.8 67.2,43.8 67.2,42.6 64.5,42.6 64.5,41.3 67.2,41.3 67.2,40.1 64.5,40.1 
			64.5,38.9 67.2,38.9 67.2,37.6 		"/>
		<rect x="68.1" y="37.6" class="st3" width="1.6" height="6.2"/>
		<polygon class="st1" points="60.3,37.6 60.3,40.1 56.7,40.1 56.7,43.8 58.3,43.8 58.3,41.4 60.3,41.4 60.3,43.8 61.9,43.8 
			61.9,37.6 		"/>
		<path class="st1" d="M62,18c-0.4,0-0.8-0.4-0.8-0.8c0-0.5,0.4-0.8,0.8-0.8s0.8,0.4,0.8,0.8c0,0,0,0,0,0C62.8,17.6,62.5,18,62,18
			 M59.6,15c-1.1,0.1-2.1-0.7-2.2-1.8c0-0.1,0-0.2,0-0.3v-1.3l1.6-1v2.3c0,0.3,0.1,0.6,0.5,0.6h5c0.3,0,0.5-0.2,0.5-0.6V9.5h1.6v3.4
			c0.1,1.1-0.8,2.1-1.9,2.1c-0.1,0-0.2,0-0.3,0L59.6,15z"/>
		<path class="st1" d="M67.7,16.5c1.4-0.3,1.5-1,1.5-1.7V9.5h1.6v3.9h0.7v1.6h-0.7v0.3c0,1.2-0.5,1.9-2,2.6L67.7,16.5z"/>
		<rect x="71.4" y="13.4" class="st3" width="1.8" height="1.6"/>
		<rect x="73.1" y="13.4" class="st3" width="1.8" height="1.6"/>
		<rect x="74.8" y="13.4" class="st3" width="1.8" height="1.6"/>
		<rect x="76.6" y="13.4" class="st3" width="1.8" height="1.6"/>
		<rect x="78.3" y="13.4" class="st3" width="1.8" height="1.6"/>
		<path class="st1" d="M83.3,7.9c0-0.4,0.4-0.8,0.8-0.8c0.4,0,0.8,0.4,0.8,0.8c0,0.4-0.4,0.8-0.8,0.8C83.7,8.7,83.3,8.3,83.3,7.9
			C83.3,7.9,83.3,7.9,83.3,7.9 M84.1,11.1c-0.4,0-0.8,0.3-1.1,0.6c0.4,0.3,0.8,0.6,1.1,1c0.3-0.4,0.7-0.7,1.1-1
			C85,11.3,84.6,11.1,84.1,11.1 M85,15.1c-0.3,0-0.7-0.1-0.9-0.3c-0.3,0.2-0.6,0.3-0.9,0.3H80v-1.6h2.7c-0.4-0.5-0.9-0.9-1.4-1.3
			c0-1.6,1.3-2.9,2.9-2.9s2.9,1.3,2.9,2.9c-0.5,0.4-1,0.8-1.4,1.3h2.1v1.6L85,15.1z"/>
		<rect x="87.6" y="13.4" class="st3" width="1.8" height="1.6"/>
		<rect x="89.3" y="13.4" class="st3" width="1.8" height="1.6"/>
		<rect x="91" y="13.4" class="st3" width="1.8" height="1.6"/>
		<rect x="92.7" y="13.4" class="st3" width="1.8" height="1.6"/>
		<rect x="94.5" y="13.4" class="st3" width="1.8" height="1.6"/>
		<path class="st1" d="M100.4,11.6c0-0.4-0.3-0.6-0.7-0.6S99,11.2,99,11.6v2.7c0,0.4,0.3,0.6,0.7,0.6s0.7-0.2,0.7-0.6V11.6z
			 M101.8,15c-0.3,0.9-1.2,1.5-2.1,1.4c-0.9,0.1-1.8-0.5-2.2-1.4h-1.4v-1.6h1.3v-1.9c-0.1-1.1,0.8-2.1,1.9-2.2c0.1,0,0.2,0,0.3,0
			c1.2-0.1,2.2,0.8,2.3,1.9c0,0.1,0,0.2,0,0.2v1.9h0.7v1.6L101.8,15z"/>
		<rect x="102.6" y="13.4" class="st3" width="1.8" height="1.6"/>
		<rect x="104.3" y="13.4" class="st3" width="1.8" height="1.6"/>
		<path class="st1" d="M106,15v-1.6h0.7c0.3,0,0.5-0.2,0.5-0.5c0,0,0,0,0-0.1V7.3h1.6v5.6c0,1.1-0.8,2.1-2,2.1c-0.1,0-0.1,0-0.2,0
			L106,15z"/>
		<polygon class="st1" points="110.4,15.9 110.4,7.2 112,7.2 112,15.1 		"/>
		<path class="st1" d="M120.5,7.9c0-0.4,0.4-0.8,0.8-0.8c0.4,0,0.8,0.4,0.8,0.8c0,0.4-0.4,0.8-0.8,0.8
			C120.9,8.7,120.5,8.4,120.5,7.9C120.5,7.9,120.5,7.9,120.5,7.9 M118.6,7.9c0-0.4,0.4-0.8,0.8-0.8c0.4,0,0.8,0.4,0.8,0.8
			s-0.4,0.8-0.8,0.8C119,8.7,118.6,8.3,118.6,7.9 M117.9,15.1c-1.1,0.1-2.1-0.7-2.2-1.8c0-0.1,0-0.3,0-0.4v-1.3l1.6-1v2.3
			c0,0.3,0.1,0.6,0.5,0.6h5.5v-4h1.6v3.9h0.7v1.6L117.9,15.1z"/>
		<rect x="125.6" y="13.4" class="st3" width="1.8" height="1.6"/>
		<rect x="127.3" y="13.4" class="st3" width="1.8" height="1.6"/>
		<rect x="129" y="13.4" class="st3" width="1.8" height="1.6"/>
		<rect x="130.7" y="13.4" class="st3" width="1.8" height="1.6"/>
		<path class="st1" d="M134.5,7.9c0-0.4,0.4-0.8,0.8-0.8c0.4,0,0.8,0.4,0.8,0.8c0,0.4-0.4,0.8-0.8,0.8
			C134.9,8.7,134.5,8.4,134.5,7.9C134.5,7.9,134.5,7.9,134.5,7.9 M132.4,15.1v-1.6h2.1v-4h1.6v3.9h0.6v1.6L132.4,15.1z"/>
		<rect x="136.8" y="13.4" class="st3" width="1.8" height="1.6"/>
		<rect x="138.5" y="13.4" class="st3" width="1.8" height="1.6"/>
		<rect x="140.2" y="13.4" class="st3" width="1.8" height="1.6"/>
		<path class="st1" d="M146.1,11.6c0-0.4-0.3-0.6-0.7-0.6s-0.7,0.2-0.7,0.6v2.7c0,0.4,0.3,0.6,0.7,0.6s0.7-0.2,0.7-0.6V11.6z
			 M147.6,15c-0.3,0.9-1.2,1.5-2.1,1.4c-1,0.1-1.8-0.5-2.2-1.4H142v-1.6h1.3v-1.9c-0.1-1.1,0.8-2.1,1.9-2.2c0.1,0,0.2,0,0.3,0
			c1.2-0.1,2.2,0.8,2.2,1.9c0,0.1,0,0.2,0,0.2v1.9h0.7v1.6L147.6,15z"/>
		<rect x="148.3" y="13.4" class="st3" width="1.8" height="1.6"/>
		<rect x="150" y="13.4" class="st3" width="1.8" height="1.6"/>
		<rect x="151.7" y="13.4" class="st3" width="1.8" height="1.6"/>
		<path class="st1" d="M153.5,15v-1.6h3.1V9.5h1.6v3.9h1.3V9.5h1.6v3.9h0.8c0.3,0,0.5-0.1,0.6-0.4c0,0,0-0.1,0-0.1V9.5h1.6v3.4
			c0.1,1.1-0.8,2.1-1.9,2.1c-0.1,0-0.2,0-0.3,0L153.5,15z"/>
		<path class="st1" d="M165.6,7.3h1.6v7.8h-1.6V7.3z M165.3,18v-0.7h0.4c0-0.1-0.1-0.3-0.1-0.4c0-0.6,0.4-1,1-1c0.1,0,0.1,0,0.1,0
			h0.4v0.7h-0.4c-0.2,0-0.4,0.1-0.4,0.4s0.2,0.4,0.5,0.4h0.7V18L165.3,18z"/>
		<path class="st4" d="M25.1,33.2c-0.1,0.4-0.2,0.8-0.3,1.3h-1.1c0.2-0.6,0.4-1.3,0.4-1.9c0-1.5-0.8-2.9-2.1-3.7l0,0l0.5-1.1l0,0
			l0.2,0.2c1.5,1,2.4,2.6,2.5,4.4C25.2,32.6,25.2,32.9,25.1,33.2"/>
		<path class="st1" d="M21.6,33.7c0,0.3-0.1,0.6-0.2,0.8c-0.3,0.4-0.7,0.8-1.1,1c1-0.2,1.8-1.2,1.7-2.2c0-0.2,0-0.5-0.1-0.7
			l-0.4,0.3C21.6,33.2,21.6,33.4,21.6,33.7"/>
		<path class="st1" d="M21.1,17.5l-0.2,1.8H21c2,0.4,3.9,1.2,5.5,2.5c0.8,0.6,1.5,1.2,2.1,1.9c2,2.2,3.2,5,3.2,8
			c0,1.2-0.2,2.4-0.6,3.6c0.3,0,0.5,0,0.8,0.1c0.3,0.1,0.5,0.2,0.8,0.4l0,0c0.5-1.5,0.7-3,0.7-4.5C33.5,24.5,28.3,18.8,21.1,17.5"/>
		<path class="st4" d="M16.8,53.5c-6.7-1.7-12-6.8-13.9-13.5l-2.4,0.6C1.6,44.7,4,48.3,7.2,51c3.1,2.6,6.8,4.3,10.8,5
			c-0.1-0.4-0.2-0.9-0.4-1.3C17.4,54.3,17.1,53.9,16.8,53.5"/>
		<path class="st4" d="M18,37.1L18,37.1c-0.9-0.6-1.5-1.5-1.5-2.6h-0.7c0.1,1.5,0.9,2.8,2.3,3.4l0,0l0.3-0.6L18,37.1"/>
		<path class="st1" d="M25.2,32.3c0,0.3,0,0.6-0.1,0.9l0,0l1.1,0.1l0,0c0.1-0.4,0.1-0.8,0.1-1.2c0-2.1-1.1-4.1-2.9-5.3l-0.7,1.1
			C24.2,28.9,25.2,30.5,25.2,32.3"/>
		<path class="st4" d="M10.2,34.5v0.2c0.1,3.8,2.5,7.3,6,8.8l0.3-1.4c-0.3-0.2-0.6-0.3-0.8-0.5l0,0c-0.3-0.2-0.5-0.4-0.8-0.6
			c-2-1.6-3.2-3.9-3.3-6.4l0,0L10.2,34.5z"/>
		<path class="st4" d="M20.3,35.5c0.5-0.2,0.9-0.6,1.1-1c0.1-0.3,0.2-0.5,0.2-0.8c0-0.3-0.1-0.5-0.2-0.8c-0.2-0.6-0.7-1-1.2-1.3l0,0
			c0,0.2,0,0.3,0,0.5c0,0,0,0.1-0.1,0.1l0,0c0.6,0.4,1,1,1,1.7c0,0.2,0,0.4-0.1,0.5C20.9,34.9,20.7,35.2,20.3,35.5"/>
		<path class="st1" d="M18,37.1c-0.9-0.6-1.5-1.5-1.5-2.6h0.7c0.1,0.8,0.5,1.5,1.1,2l0,0L18,37.1z"/>
		<path class="st1" d="M15.6,41.5c-0.3-0.2-0.5-0.4-0.8-0.6c-2-1.6-3.2-3.9-3.3-6.5l0,0l0,0c0-0.5,0.1-1.1,0.2-1.6l0,0l1.3,0.2
			c-0.1,0.5-0.1,1-0.1,1.5c0.1,2.3,1.2,4.4,3.1,5.7L15.6,41.5z"/>
		<path class="st4" d="M31.6,33.7L31.6,33.7c-0.1-0.1-0.3-0.1-0.4-0.1c-0.3,0-0.6,0.1-0.8,0.1c-0.1,0-0.3,0-0.4,0
			c0.1-0.6,0.1-1.2,0.1-1.8c0-2.4-0.9-4.8-2.5-6.6c-0.6-0.7-1.3-1.4-2-2l0,0l0,0l1-1.5l0,0c0.8,0.6,1.5,1.2,2.1,1.9
			c2,2.2,3.2,5,3.2,8C31.8,32.3,31.7,33,31.6,33.7"/>
		<path class="st1" d="M19.6,54.1c-0.9-0.1-1.9-0.3-2.8-0.6c-6.7-1.7-12-6.9-13.9-13.5c-0.4-1.3-0.6-2.7-0.6-4.1
			c0-1.7,0.2-3.4,0.6-5l0,0l2,1l0,0c-0.2,1.1-0.4,2.2-0.4,3.3C4.6,39.1,6,42.8,8.5,45.7c2.7,3.2,6.5,5.3,10.6,6l0,0
			c0.2,0.3,0.3,0.7,0.4,1.1C19.5,53.3,19.6,53.8,19.6,54.1L19.6,54.1z"/>
		<path class="st4" d="M40.6,38.2l2.4,1c1.2-3.1,1.8-6.4,1.8-9.7c0-3.7-0.8-7.3-2.5-10.6c-2.8-5.6-7.3-10.1-12.9-12.7
			c-1-0.5-2.1-0.9-3.2-1.3l0,0l-1.5,3c4.5,1.4,8.6,4.1,11.7,7.7c3.5,4.1,5.4,9.3,5.5,14.6C42,33,41.5,35.7,40.6,38.2"/>
		<path class="st1" d="M40.6,43.8c1-1.4,1.8-3,2.4-4.6c1.2-3.1,1.8-6.4,1.8-9.7c0-3.7-0.8-7.3-2.5-10.7c-2.8-5.6-7.3-10.1-12.9-12.7
			l0,0l1.4-2.9l0,0c3.2,1.5,6.1,3.6,8.6,6c5.3,5,8.2,12,8.2,19.2c0,5.8-1.7,11.5-5,16.4L40.6,43.8z"/>
	</g>
</g>
<g>
	<defs>
		<path id="SVGID_3_" d="M2.1,3.5l1.8,3.1c4.2-2,8.8-3.1,13.5-3.1c3.1,0,6.1,0.5,9,1.4c1.1,0.4,2.1,0.8,3.2,1.3l1.4-2.9l0,0l0,0
			c-1.2-0.6-2.4-1.1-3.7-1.5l0,0c0,0-1.7-0.6-2.6-0.8C22.5,0.3,20.2,0,18,0C12.5-0.1,7,1.1,2.1,3.5"/>
	</defs>
	<clipPath id="SVGID_4_">
		<use xlink:href="#SVGID_3_"  style="overflow:visible;"/>
	</clipPath>
	<g class="st5">
		
			<linearGradient id="SVGID_5_" gradientUnits="userSpaceOnUse" x1="-845.4486" y1="-251.587" x2="-844.4486" y2="-251.587" gradientTransform="matrix(28.81 0 0 28.81 24359.5703 7251.5313)">
			<stop  offset="0" style="stop-color:#FFFFFF"/>
			<stop  offset="0.26" style="stop-color:#C1C1C1"/>
			<stop  offset="0.86" style="stop-color:#262626"/>
			<stop  offset="1" style="stop-color:#010101"/>
		</linearGradient>
		<rect x="2.1" y="0" class="st6" width="28.8" height="6.6"/>
	</g>
</g>
<g>
	<defs>
		<rect id="SVGID_6_" y="0" width="167.8" height="56.3"/>
	</defs>
	<clipPath id="SVGID_7_">
		<use xlink:href="#SVGID_6_"  style="overflow:visible;"/>
	</clipPath>
	<g class="st7">
		<path class="st4" d="M3.9,6.6L3.9,6.6l1.8,3.1c3.8-1.8,8-2.8,12.2-2.8c2.4,0.1,4.7,0.4,7,1l0,0h0.1L26.3,5V4.9
			c-2.9-1-5.9-1.4-9-1.4h-0.1C12.6,3.6,8,4.7,3.9,6.6"/>
	</g>
</g>
<g>
	<defs>
		<path id="SVGID_8_" d="M40.6,38.2c-0.6,1.7-1.4,3.3-2.3,4.8c-3.4,5.6-9.5,9-16,9c-1.1,0-2.1-0.1-3.2-0.3c0.2,0.3,0.3,0.7,0.4,1.1
			c0,0.5,0.1,0.9,0.1,1.3c0.9,0.1,1.7,0.2,2.6,0.2h0.1c6.2-0.1,12.1-2.9,16.1-7.8l0.2-0.3c0.7-0.8,1.3-1.6,1.8-2.4
			c1-1.4,1.8-3,2.4-4.6l0,0L40.6,38.2L40.6,38.2z"/>
	</defs>
	<clipPath id="SVGID_9_">
		<use xlink:href="#SVGID_8_"  style="overflow:visible;"/>
	</clipPath>
	<g class="st8">
		
			<linearGradient id="SVGID_10_" gradientUnits="userSpaceOnUse" x1="-859.8183" y1="-237.5887" x2="-858.8183" y2="-237.5887" gradientTransform="matrix(23.1052 -16.2025 16.2025 23.1052 23734.623 -8386.876)">
			<stop  offset="0" style="stop-color:#010101"/>
			<stop  offset="6.000000e-02" style="stop-color:#111111"/>
			<stop  offset="0.49" style="stop-color:#868686"/>
			<stop  offset="0.79" style="stop-color:#CFCFCF"/>
			<stop  offset="0.92" style="stop-color:#ECECEC"/>
			<stop  offset="1" style="stop-color:#ECECEC"/>
		</linearGradient>
		<polygon class="st9" points="11.6,43.5 35.1,27 50.6,48.9 27,65.5 		"/>
	</g>
</g>
<g>
	<defs>
		<path id="SVGID_11_" d="M4.8,26.7C4,28,3.4,29.4,3,30.9l0,0l2,1l0,0c0.3-1.1,0.7-2.2,1.2-3.3c0.5-1,1.1-1.9,1.7-2.7
			c2.3-3.2,6-5.1,10-5.2c0.8,0,1.6,0.1,2.4,0.2c1.9,0.3,3.7,1.1,5.2,2.3l1-1.5c-1.6-1.2-3.5-2-5.5-2.5H21C20,19.1,19,19,18,19
			C12.6,19.1,7.6,22.1,4.8,26.7"/>
	</defs>
	<clipPath id="SVGID_12_">
		<use xlink:href="#SVGID_11_"  style="overflow:visible;"/>
	</clipPath>
	<g class="st10">
		
			<linearGradient id="SVGID_13_" gradientUnits="userSpaceOnUse" x1="-838.8628" y1="-247.5496" x2="-837.8628" y2="-247.5496" gradientTransform="matrix(23.41 0 0 23.41 19640.9102 5820.5605)">
			<stop  offset="0" style="stop-color:#010101"/>
			<stop  offset="6.000000e-02" style="stop-color:#111111"/>
			<stop  offset="0.49" style="stop-color:#868686"/>
			<stop  offset="0.79" style="stop-color:#CFCFCF"/>
			<stop  offset="0.92" style="stop-color:#ECECEC"/>
			<stop  offset="1" style="stop-color:#ECECEC"/>
		</linearGradient>
		<rect x="3" y="19" class="st11" width="23.4" height="12.9"/>
	</g>
</g>
<g>
	<defs>
		<path id="SVGID_14_" d="M5.6,22.6c-2.7,2.7-4.5,6.1-5.2,9.9C0.1,33.6,0,34.7,0,35.9V36c0,1.5,0.2,3.1,0.6,4.6l0,0L2.9,40
			c-0.4-1.3-0.5-2.7-0.5-4.1c0-1.7,0.2-3.4,0.6-5c0.4-1.5,1-2.9,1.8-4.2c2.8-4.7,7.7-7.6,13.2-7.8c1,0,2,0.1,2.9,0.3l0,0l0.2-1.8
			l0,0c-1-0.2-2-0.3-3.1-0.3C13.3,17.3,8.8,19.2,5.6,22.6"/>
	</defs>
	<clipPath id="SVGID_15_">
		<use xlink:href="#SVGID_14_"  style="overflow:visible;"/>
	</clipPath>
	<g class="st12">
		
			<linearGradient id="SVGID_16_" gradientUnits="userSpaceOnUse" x1="-835.0204" y1="-245.3739" x2="-834.0204" y2="-245.3739" gradientTransform="matrix(21.1 0 0 21.1 17618.9297 5206.2988)">
			<stop  offset="0" style="stop-color:#ECECEC"/>
			<stop  offset="8.000000e-02" style="stop-color:#ECECEC"/>
			<stop  offset="0.21" style="stop-color:#CFCFCF"/>
			<stop  offset="0.51" style="stop-color:#868686"/>
			<stop  offset="0.94" style="stop-color:#111111"/>
			<stop  offset="1" style="stop-color:#010101"/>
		</linearGradient>
		<rect y="17.2" class="st13" width="21.1" height="23.4"/>
	</g>
</g>
<g>
	<defs>
		<path id="SVGID_17_" d="M40.6,43.8c-0.6,0.8-1.2,1.7-1.8,2.4l-0.2,0.3c-4,4.8-9.9,7.6-16.2,7.7c-0.9,0-1.8-0.1-2.8-0.2l0,0
			c-0.9-0.1-1.9-0.3-2.8-0.6l0,0c0.3,0.4,0.6,0.7,0.8,1.2c0.2,0.4,0.3,0.8,0.4,1.3H18c1,0.2,2.1,0.3,3.1,0.3h0.1
			c6,0,11.8-2,16.3-5.9l1-0.9c1.5-1.4,2.8-2.9,4-4.6l0,0l0,0L40.6,43.8L40.6,43.8z"/>
	</defs>
	<clipPath id="SVGID_18_">
		<use xlink:href="#SVGID_17_"  style="overflow:visible;"/>
	</clipPath>
	<g class="st14">
		
			<linearGradient id="SVGID_19_" gradientUnits="userSpaceOnUse" x1="-842.2883" y1="-249.8068" x2="-841.2879" y2="-249.8068" gradientTransform="matrix(25.94 0 0 25.94 21865.8711 6530.0293)">
			<stop  offset="0" style="stop-color:#ECECEC"/>
			<stop  offset="8.000000e-02" style="stop-color:#ECECEC"/>
			<stop  offset="0.21" style="stop-color:#CFCFCF"/>
			<stop  offset="0.51" style="stop-color:#868686"/>
			<stop  offset="0.94" style="stop-color:#111111"/>
			<stop  offset="1" style="stop-color:#010101"/>
		</linearGradient>
		<rect x="16.8" y="43.8" class="st15" width="26" height="12.5"/>
	</g>
</g>
<g>
	<defs>
		<path id="SVGID_20_" d="M31.3,35.2L31.3,35.2c-0.8,2.4-2.4,4.6-4.4,6.1c-1.6,1.3-3.6,2-5.7,2c-0.6,0-1.1-0.1-1.7-0.2
			c-1.1-0.2-2.1-0.5-3-1.1l0,0l-0.2,1.4l0,0c0.9,0.4,1.9,0.8,2.9,0.9c0.6,0.1,1.2,0.2,1.9,0.2h0.1c5.4-0.2,10.1-3.8,11.7-8.9l0,0
			c-0.2-0.1-0.5-0.3-0.8-0.3C31.8,35.2,31.6,35.2,31.3,35.2L31.3,35.2z"/>
	</defs>
	<clipPath id="SVGID_21_">
		<use xlink:href="#SVGID_20_"  style="overflow:visible;"/>
	</clipPath>
	<g class="st16">
		
			<linearGradient id="SVGID_22_" gradientUnits="userSpaceOnUse" x1="-824.278" y1="-239.1003" x2="-823.278" y2="-239.1003" gradientTransform="matrix(16.54 0 0 16.54 13649.7109 3994.6099)">
			<stop  offset="0" style="stop-color:#ECECEC"/>
			<stop  offset="8.000000e-02" style="stop-color:#ECECEC"/>
			<stop  offset="0.21" style="stop-color:#CFCFCF"/>
			<stop  offset="0.51" style="stop-color:#868686"/>
			<stop  offset="0.94" style="stop-color:#111111"/>
			<stop  offset="1" style="stop-color:#010101"/>
		</linearGradient>
		<rect x="16.2" y="35.2" class="st17" width="16.5" height="9.4"/>
	</g>
</g>
<g>
	<defs>
		<path id="SVGID_23_" d="M31.1,33.5c-0.3,0-0.6,0.1-0.8,0.1c-0.1,0-0.3,0-0.4,0l0,0c-0.3,1.8-1.1,3.5-2.2,4.9
			c-1.6,2.1-3.9,3.3-6.5,3.4c-0.6,0-1.1-0.1-1.6-0.2c-1.2-0.3-2.3-0.8-3.3-1.5l0,0l0,0l-0.5,1.3l0,0c0.3,0.2,0.5,0.3,0.8,0.5l0,0
			c0.9,0.5,2,0.9,3,1.1c0.5,0.1,1.1,0.1,1.6,0.1h0.2c2,0,4-0.7,5.6-2c2-1.5,3.5-3.7,4.3-6.1l0,0c0.2-0.5,0.3-1,0.4-1.5
			C31.4,33.6,31.3,33.5,31.1,33.5L31.1,33.5"/>
	</defs>
	<clipPath id="SVGID_24_">
		<use xlink:href="#SVGID_23_"  style="overflow:visible;"/>
	</clipPath>
	<g class="st18">
		
			<linearGradient id="SVGID_25_" gradientUnits="userSpaceOnUse" x1="-822.3967" y1="-238.3137" x2="-821.3967" y2="-238.3137" gradientTransform="matrix(15.94 0 0 15.94 13124.6992 3837.1101)">
			<stop  offset="0" style="stop-color:#010101"/>
			<stop  offset="6.000000e-02" style="stop-color:#111111"/>
			<stop  offset="0.49" style="stop-color:#868686"/>
			<stop  offset="0.79" style="stop-color:#CFCFCF"/>
			<stop  offset="0.92" style="stop-color:#ECECEC"/>
			<stop  offset="1" style="stop-color:#ECECEC"/>
		</linearGradient>
		<rect x="15.6" y="33.5" class="st19" width="15.9" height="9.7"/>
	</g>
</g>
<g>
	<defs>
		<path id="SVGID_26_" d="M12.2,28.9c-1.3,1.6-2,3.5-2,5.6l0,0h1.4c0-0.5,0.1-1.1,0.2-1.6c0.4-2.2,1.8-4.2,3.8-5.3
			c1.1-0.5,2.2-0.8,3.4-0.8h0.1c1.2,0,2.4,0.4,3.4,1l0.2,0.2l0,0l0.6-1l0,0l0,0c-0.9-0.6-2-1-3.1-1.2l-0.7-0.1h-0.6
			C16.3,25.6,13.8,26.8,12.2,28.9"/>
	</defs>
	<clipPath id="SVGID_27_">
		<use xlink:href="#SVGID_26_"  style="overflow:visible;"/>
	</clipPath>
	<g class="st20">
		
			<linearGradient id="SVGID_28_" gradientUnits="userSpaceOnUse" x1="-811.9323" y1="-231.9509" x2="-810.9323" y2="-231.9509" gradientTransform="matrix(13.25 0 0 13.25 10768.21 3103.3398)">
			<stop  offset="0" style="stop-color:#ECECEC"/>
			<stop  offset="8.000000e-02" style="stop-color:#ECECEC"/>
			<stop  offset="0.21" style="stop-color:#CFCFCF"/>
			<stop  offset="0.51" style="stop-color:#868686"/>
			<stop  offset="0.94" style="stop-color:#111111"/>
			<stop  offset="1" style="stop-color:#010101"/>
		</linearGradient>
		<rect x="10.2" y="25.5" class="st21" width="13.3" height="8.9"/>
	</g>
</g>
<g>
	<defs>
		<path id="SVGID_29_" d="M19.1,26.8c-1.2,0-2.4,0.3-3.4,0.8c-2,1.1-3.4,3-3.8,5.3l0,0l1.4,0.2l0,0c0.5-2.8,2.8-4.9,5.6-5.1H19
			c1,0,2.1,0.3,2.9,0.9l0,0l0.5-1.1l0,0C21.5,27.1,20.3,26.7,19.1,26.8L19.1,26.8z"/>
	</defs>
	<clipPath id="SVGID_30_">
		<use xlink:href="#SVGID_29_"  style="overflow:visible;"/>
	</clipPath>
	<g class="st22">
		
			<linearGradient id="SVGID_31_" gradientUnits="userSpaceOnUse" x1="-797.3529" y1="-223.5383" x2="-796.3529" y2="-223.5383" gradientTransform="matrix(10.73 0 0 10.73 8567.3496 2428.4705)">
			<stop  offset="0" style="stop-color:#010101"/>
			<stop  offset="6.000000e-02" style="stop-color:#111111"/>
			<stop  offset="0.49" style="stop-color:#868686"/>
			<stop  offset="0.79" style="stop-color:#CFCFCF"/>
			<stop  offset="0.92" style="stop-color:#ECECEC"/>
			<stop  offset="1" style="stop-color:#ECECEC"/>
		</linearGradient>
		<rect x="11.8" y="26.8" class="st23" width="10.7" height="6.3"/>
	</g>
</g>
<g>
	<defs>
		<path id="SVGID_32_" d="M24.8,34.4c-0.6,1.9-2.3,3.3-4.3,3.5c-0.3,0-0.6,0-0.9-0.1c-0.4-0.1-0.8-0.2-1.2-0.5l0,0L18.1,38l0,0
			c0.5,0.3,1.1,0.5,1.7,0.6h0.6h0.1c2.3,0,4.4-1.4,5.3-3.5c0.2-0.5,0.4-1.1,0.5-1.7l-1.1-0.1C25.1,33.6,25,34,24.8,34.4"/>
	</defs>
	<clipPath id="SVGID_33_">
		<use xlink:href="#SVGID_32_"  style="overflow:visible;"/>
	</clipPath>
	<g class="st24">
		
			<linearGradient id="SVGID_34_" gradientUnits="userSpaceOnUse" x1="-772.9562" y1="-209.4121" x2="-771.9562" y2="-209.4121" gradientTransform="matrix(8.14 0 0 8.14 6309.9805 1740.4796)">
			<stop  offset="0" style="stop-color:#ECECEC"/>
			<stop  offset="8.000000e-02" style="stop-color:#ECECEC"/>
			<stop  offset="0.21" style="stop-color:#CFCFCF"/>
			<stop  offset="0.51" style="stop-color:#868686"/>
			<stop  offset="0.94" style="stop-color:#111111"/>
			<stop  offset="1" style="stop-color:#010101"/>
		</linearGradient>
		<rect x="18.1" y="33.2" class="st25" width="8.1" height="5.3"/>
	</g>
</g>
<g>
	<defs>
		<path id="SVGID_35_" d="M24.8,34.4h-1.1c-0.5,1.5-1.9,2.6-3.5,2.7c-0.2,0-0.5,0-0.7-0.1c-0.5-0.1-0.9-0.3-1.3-0.6l0,0L18,37l0,0
			l0.4,0.2c0.4,0.2,0.8,0.4,1.2,0.5c0.3,0.1,0.6,0.1,0.8,0.1h0.1C22.5,37.7,24.2,36.4,24.8,34.4L24.8,34.4z"/>
	</defs>
	<clipPath id="SVGID_36_">
		<use xlink:href="#SVGID_35_"  style="overflow:visible;"/>
	</clipPath>
	<g class="st26">
		
			<linearGradient id="SVGID_37_" gradientUnits="userSpaceOnUse" x1="-753.9329" y1="-198.1351" x2="-752.9329" y2="-198.1351" gradientTransform="matrix(6.85 0 0 6.85 5182.4399 1393.3701)">
			<stop  offset="0" style="stop-color:#010101"/>
			<stop  offset="6.000000e-02" style="stop-color:#111111"/>
			<stop  offset="0.49" style="stop-color:#868686"/>
			<stop  offset="0.79" style="stop-color:#CFCFCF"/>
			<stop  offset="0.92" style="stop-color:#ECECEC"/>
			<stop  offset="1" style="stop-color:#ECECEC"/>
		</linearGradient>
		<rect x="18" y="34.4" class="st27" width="6.9" height="3.4"/>
	</g>
</g>
<g>
	<defs>
		<path id="SVGID_38_" d="M16.5,34.4L16.5,34.4l0.7,0.1l0,0c-0.1-1.3,0.8-2.4,2.1-2.5c0,0,0,0,0,0c0.3,0,0.7,0.1,0.9,0.2
			c0,0,0.1-0.1,0.1-0.1c0-0.2,0-0.3,0-0.5l0,0c-0.3-0.1-0.7-0.2-1.1-0.2C17.6,31.5,16.4,32.9,16.5,34.4"/>
	</defs>
	<clipPath id="SVGID_39_">
		<use xlink:href="#SVGID_38_"  style="overflow:visible;"/>
	</clipPath>
	<g class="st28">
		
			<linearGradient id="SVGID_40_" gradientUnits="userSpaceOnUse" x1="-656.9993" y1="-141.9182" x2="-655.9993" y2="-141.9182" gradientTransform="matrix(3.79 0 0 3.79 2506.5 570.8101)">
			<stop  offset="0" style="stop-color:#010101"/>
			<stop  offset="6.000000e-02" style="stop-color:#111111"/>
			<stop  offset="0.49" style="stop-color:#868686"/>
			<stop  offset="0.79" style="stop-color:#CFCFCF"/>
			<stop  offset="0.92" style="stop-color:#ECECEC"/>
			<stop  offset="1" style="stop-color:#ECECEC"/>
		</linearGradient>
		<rect x="16.5" y="31.4" class="st29" width="3.8" height="3.1"/>
	</g>
</g>
<g>
	<defs>
		<path id="SVGID_41_" d="M15.8,34.4L15.8,34.4l0.7,0.1l0,0c-0.1-1.6,1.1-2.9,2.7-3c0.4,0,0.7,0.1,1.1,0.2c0.5,0.2,1,0.7,1.2,1.2
			l0,0l0.4-0.3l0,0l0,0c-0.3-0.7-0.9-1.2-1.6-1.5h-0.1c-0.3-0.1-0.7-0.2-1-0.2c-1.8-0.1-3.4,1.4-3.4,3.2
			C15.9,34.2,15.9,34.3,15.8,34.4"/>
	</defs>
	<clipPath id="SVGID_42_">
		<use xlink:href="#SVGID_41_"  style="overflow:visible;"/>
	</clipPath>
	<g class="st30">
		
			<linearGradient id="SVGID_43_" gradientUnits="userSpaceOnUse" x1="-738.9418" y1="-190.4023" x2="-737.9418" y2="-190.4023" gradientTransform="matrix(6.09 0 0 6.09 4516.0303 1192.2101)">
			<stop  offset="0" style="stop-color:#ECECEC"/>
			<stop  offset="8.000000e-02" style="stop-color:#ECECEC"/>
			<stop  offset="0.21" style="stop-color:#CFCFCF"/>
			<stop  offset="0.51" style="stop-color:#868686"/>
			<stop  offset="0.94" style="stop-color:#111111"/>
			<stop  offset="1" style="stop-color:#010101"/>
		</linearGradient>
		<rect x="15.8" y="30.8" class="st31" width="6.1" height="3.6"/>
	</g>
</g>
</svg>
